<?xml version="1.0" encoding="UTF-8" standalone="no"?>
<!-- Created with Inkscape (http://www.inkscape.org/) -->

<svg
   width="240mm"
   height="150mm"
   viewBox="0 0 240 150"
   version="1.1"
   id="svg1"
   inkscape:version="1.4.4 (dcaf3e7, 2026-05-05)"
   sodipodi:docname="trut_logo_cerne.svg"
   xmlns:inkscape="http://www.inkscape.org/namespaces/inkscape"
   xmlns:sodipodi="http://sodipodi.sourceforge.net/DTD/sodipodi-0.dtd"
   xmlns="http://www.w3.org/2000/svg"
   xmlns:svg="http://www.w3.org/2000/svg">
  <sodipodi:namedview
     id="namedview1"
     pagecolor="#ffffff"
     bordercolor="#000000"
     borderopacity="0.25"
     inkscape:showpageshadow="2"
     inkscape:pageopacity="0.0"
     inkscape:pagecheckerboard="0"
     inkscape:deskcolor="#d1d1d1"
     inkscape:document-units="mm"
     inkscape:zoom="0.70710678"
     inkscape:cx="337.28993"
     inkscape:cy="297.69195"
     inkscape:window-width="1920"
     inkscape:window-height="1009"
     inkscape:window-x="-8"
     inkscape:window-y="-8"
     inkscape:window-maximized="1"
     inkscape:current-layer="layer1" />
  <defs
     id="defs1" />
  <g
     inkscape:label="Vrstva 1"
     inkscape:groupmode="layer"
     id="layer1">
    <path
       id="text1"
       style="font-size:92.7806px;font-family:'New Rocker';-inkscape-font-specification:'New Rocker, Normal';stroke-width:0;fill:#currentColor"
       d="m 89.864398,17.03852 q -2.226734,1.948392 -4.917372,3.711224 -2.597857,1.762831 -5.474055,3.061759 -2.876199,1.298929 -5.937959,2.133954 -3.06176,0.742245 -6.123519,0.742245 -1.020587,0 -1.948393,0 -0.927806,0 -1.855612,-0.09278 -0.278342,2.783418 -0.278342,5.659616 0,7.886348 0.09278,15.865488 0.09278,7.97913 0.09278,16.97885 0,4.82459 1.670051,9.37084 1.762832,4.45346 5.010153,6.49464 -3.896786,1.85561 -6.587423,3.89678 -2.597857,2.13396 -4.63903,6.03074 -1.57727,-3.804 -4.917372,-6.12352 -3.340102,-2.22673 -7.515229,-3.804 1.855612,-2.69064 2.783418,-6.95855 0.927806,-4.36069 0.927806,-8.44303 0,-3.98957 0,-7.05133 0,-3.15454 0,-5.84518 0.09278,-2.69063 0.09278,-5.19571 0.09278,-2.50508 0.09278,-5.38127 0.09278,-2.8762 0.09278,-6.309085 0,-3.432882 0,-8.071912 0,-0.742245 0,-1.391709 0,-0.649464 -0.185561,-1.391709 -6.12352,-1.113368 -11.690356,-2.226735 -5.474055,-1.206148 -10.020305,-1.206148 -2.041173,0 -4.360688,0.463903 L 24.17573,21.67755 q 5.010153,-1.48449 8.164693,-3.618444 3.247321,-2.133954 6.494642,-5.102933 4.824592,1.391709 8.164693,2.226735 3.432883,0.835025 6.309081,1.298928 2.968979,0.463903 5.752397,0.649464 2.876199,0.09278 6.494643,0.09278 -0.927806,-1.57727 -1.298929,-2.783418 -0.371122,-1.298929 -0.463903,-2.690638 3.06176,1.948393 5.659617,3.06176 2.690637,1.020587 5.102933,1.57727 2.412296,0.463903 4.824591,0.556684 2.412296,0.09278 5.010153,0.09278 1.484489,0 2.690637,-0.09278 1.298929,-0.09278 2.597857,-0.278342 z m 5.937915,37.854486 q 2.133954,-3.43288 3.989566,-7.23689 1.855611,-3.804 3.432881,-8.07191 1.76283,1.11337 5.01015,2.31951 3.24733,1.11337 7.14411,2.04118 -0.4639,3.89678 -1.67005,7.1441 -1.20615,3.15454 -3.06176,5.2885 l -6.2163,-3.24732 h -1.11337 l -7.515227,10.57699 v 12.80372 q 0,3.24732 1.113367,4.73181 1.206148,1.39171 4.17513,1.85561 v 1.57727 H 81.235759 v -1.39171 q 2.505076,-0.9278 2.505076,-5.93796 v -32.38043 l -3.432882,-1.48449 v -1.02058 q 3.247321,-0.4639 7.051325,-1.20615 3.804005,-0.83502 6.772984,-1.57727 l 1.670051,2.78342 z m 21.617967,-11.31923 q 1.94839,-0.18557 4.36068,-0.55669 2.4123,-0.4639 4.8246,-1.02058 2.41229,-0.55669 4.45346,-1.11337 2.04118,-0.64947 3.24733,-1.20615 -0.18557,1.57727 -0.37113,2.8762 -0.0928,1.29893 -0.18556,2.78342 0,1.48449 -0.0928,3.24732 0,1.76283 0,4.17513 v 18.74168 l 3.89679,2.96898 8.90693,-3.89679 v -14.47377 q 0,-3.15454 -0.18556,-5.19572 -0.0928,-2.04117 -0.55668,-3.24732 -0.4639,-1.20615 -1.29893,-1.76283 -0.74224,-0.64946 -2.13395,-1.02059 v -1.20614 q 4.45347,-0.27835 8.72137,-1.29893 4.36069,-1.02059 7.51523,-2.59786 v 21.89622 q 0,4.36069 0.18556,7.14411 0.18556,2.69064 0.64947,4.36069 0.4639,1.67005 1.20615,2.41229 0.83502,0.74225 2.13395,1.02059 v 1.02059 q -1.20615,0.55668 -2.69064,1.67005 -1.48449,1.11336 -2.8762,2.50507 -1.39171,1.39171 -2.50507,2.8762 -1.11337,1.39171 -1.67005,2.59786 -3.06176,-2.59786 -4.45347,-4.82459 -1.29893,-2.22674 -1.76283,-5.47406 -2.78342,1.39171 -4.91738,2.59786 -2.04117,1.20615 -3.804,2.41229 -1.67005,1.20615 -3.15454,2.50508 -1.39171,1.29893 -2.8762,2.78342 -1.85561,-1.67005 -3.3401,-2.78342 -1.39171,-1.20615 -2.78342,-2.13395 -1.29893,-0.92781 -2.69064,-1.67005 -1.29893,-0.83503 -2.96898,-1.76284 0.37113,-0.55668 0.64947,-2.50507 0.37112,-1.94839 0.64946,-4.73181 0.27834,-2.78342 0.37112,-5.93796 0.18557,-3.24732 0.18557,-6.2163 0,-3.3401 -0.27835,-5.7524 -0.18556,-2.50507 -0.74224,-4.26791 -0.55668,-1.76283 -1.48449,-2.87619 -0.83503,-1.20615 -2.22673,-2.04118 z m 67.82268,5.47405 v 20.50451 q 0,4.8246 2.31951,7.23689 2.4123,2.4123 5.93796,2.59786 v 1.29893 q -1.57727,0.55668 -3.3401,1.39171 -1.76283,0.83502 -3.43288,1.76283 -1.67005,0.83502 -3.15454,1.76283 -1.48449,0.9278 -2.31952,1.67005 -2.13395,-1.29893 -4.36069,-2.50508 -2.22673,-1.20615 -3.71122,-1.94839 v -34.51438 h -7.70079 v -1.02059 q 4.08235,-1.57727 7.70079,-4.82459 v -2.96898 q 0,-0.742246 -0.18556,-2.319516 -0.0928,-1.670051 -0.27834,-3.340102 -0.18556,-1.762831 -0.46391,-3.15454 -0.27834,-1.48449 -0.64946,-1.948393 4.17513,-0.278341 7.70079,-1.67005 3.52566,-1.391709 7.51523,-3.525663 -0.37112,0.927806 -0.64947,2.876198 -0.27834,1.948393 -0.55668,4.175127 -0.18556,2.133954 -0.27834,4.175127 -0.0928,1.948393 -0.0928,2.783418 v 4.917374 H 198.325 v 0.37112 q -1.48449,1.57727 -2.69063,3.52566 -1.11337,1.9484 -1.57727,3.80401 z m 17.06093,47.21295 c 0.33203,-1.54305 0.54261,-2.52696 0.56071,-2.61896 0.0232,-0.10594 0.0101,-0.17028 0.0258,-0.26741 -0.0586,0.0881 -0.12814,0.17904 -0.19378,0.26948 -0.0372,0.0504 -0.0677,0.0971 -0.10671,0.14806 -0.22608,0.29377 -0.50101,0.59558 -0.81674,0.89839 -0.0475,0.0457 -0.0928,0.0904 -0.14314,0.13592 -0.33255,0.30564 -0.71647,0.60796 -1.15626,0.90485 -0.0643,0.0437 -0.13308,0.0847 -0.19973,0.1279 -0.46249,0.29765 -0.97748,0.58549 -1.56813,0.85497 -0.0643,0.03 -0.13669,0.0569 -0.20283,0.085 -0.63251,0.27776 -1.32369,0.53875 -2.11381,0.7661 l -0.24289,0.0636 c -1.2751,0.30591 -2.60138,0.51882 -3.96306,0.68392 -0.36563,0.0442 -0.75216,0.069 -1.12578,0.10285 -1.04129,0.0951 -2.12002,0.15348 -3.23236,0.16949 -0.24209,0.003 -0.45733,0.0372 -0.70331,0.0372 0,0 0,0 -0.0122,0 -0.33952,0 -0.69946,-0.0222 -1.04516,-0.0292 -0.37518,-0.008 -0.75242,-0.0152 -1.13715,-0.0318 -1.18131,-0.0501 -2.39107,-0.12557 -3.68194,-0.2545 l -0.95549,-0.10002 0.005,-0.0165 c -3.95611,-0.45165 -7.58275,-1.16401 -10.53116,-1.75337 -1.01312,-0.2013 -1.93889,-0.39095 -2.78048,-0.54261 -3.06983,-0.55552 -5.88232,-1.16607 -8.59557,-1.75596 -9.48005,-2.05854 -18.44667,-4.00388 -38.39247,-4.0504 -19.95408,0.0465 -28.926153,1.99186 -38.418344,4.0504 -2.707826,0.58989 -5.514129,1.20044 -8.583692,1.75856 -0.829681,0.14906 -1.752097,0.33279 -2.75127,0.53432 -2.966482,0.59169 -6.607095,1.31001 -10.543804,1.75752 l 0.0057,0.0181 -0.957818,0.10002 c -1.308973,0.13126 -2.540926,0.20669 -3.744727,0.25656 -0.303609,0.0114 -0.602298,0.0173 -0.902018,0.0246 -0.405156,0.009 -0.823727,0.0343 -1.221105,0.0343 -0.290168,0 -0.544671,-0.0385 -0.829945,-0.0437 -0.989859,-0.0181 -1.953365,-0.0718 -2.895944,-0.15142 -0.475403,-0.0411 -0.964538,-0.071 -1.427823,-0.1271 -1.340724,-0.16331 -2.648136,-0.37415 -3.897683,-0.67128 l -0.256567,-0.0757 c -0.787029,-0.22479 -1.47484,-0.48445 -2.104787,-0.75912 -0.07443,-0.0331 -0.155284,-0.0625 -0.227118,-0.0953 -0.577744,-0.26379 -1.08159,-0.54595 -1.53633,-0.83741 -0.08012,-0.0514 -0.162268,-0.10078 -0.238495,-0.15245 -0.42762,-0.28964 -0.799703,-0.58447 -1.123976,-0.88236 -0.0576,-0.0527 -0.110332,-0.10361 -0.164571,-0.15608 -0.312394,-0.30152 -0.58293,-0.60074 -0.806159,-0.89347 -0.03101,-0.0403 -0.0558,-0.0783 -0.08578,-0.11912 -0.0721,-0.0987 -0.148325,-0.19793 -0.211376,-0.29429 0.01423,0.0969 0.0047,0.1638 0.02611,0.26974 l -0.02921,0.009 c 0.157612,0.51962 0.414708,1.70868 1.042828,4.60875 1.091936,5.032544 2.830063,13.035394 3.945758,18.064544 h 0.01733 l 0.157851,0.65759 c 0.488103,2.40374 1.0219,4.95628 1.668118,7.30732 1.121648,4.06252 2.347675,6.81971 3.767217,8.42608 3.300307,3.72948 7.859977,5.5436 13.937906,5.5436 4.287335,0 8.472355,-0.91985 11.533399,-1.59163 0.803328,-0.1783 1.544876,-0.34237 2.178949,-0.46717 0.08215,-0.015 8.288893,-1.60687 14.793146,-2.51508 l 3.444016,-0.49381 c 7.666464,-1.10974 13.212894,-1.91021 26.440254,-1.93087 13.22218,0.0207 18.7601,0.82113 26.42706,1.92804 l 3.46051,0.49636 c 6.50219,0.90821 14.69136,2.5001 14.77894,2.51508 0.64545,0.1248 1.37848,0.2889 2.19057,0.46717 3.06054,0.67178 7.24632,1.59163 11.52514,1.59163 6.07147,0 10.62802,-1.81412 13.93764,-5.5436 1.41052,-1.60637 2.60475,-4.28165 3.76127,-8.43463 0.66897,-2.44816 1.21854,-5.06455 1.67354,-7.29877 l 0.16976,-0.65759 c 1.28804,-5.76295 3.38611,-15.42799 4.38422,-20.054334 z m 15.67244,-11.07425 c -3.53132,0 -6.67737,-0.96377 -9.71466,-1.89859 -2.05594,-0.63072 -4.02455,-1.23222 -6.07144,-1.54771 l -8e-4,0.003 h -0.0142 c -2.09135,0 -6.27404,1.11543 -6.90499,2.57296 -0.061,0.16071 -0.27183,0.63331 0.59296,1.53041 1.19475,1.25883 2.76881,1.89833 4.2876,2.51174 0.72062,0.29093 1.41644,0.57748 2.03732,0.91956 0.0129,0.008 0.0295,0.0116 0.0427,0.0189 l 1.4247,0.97798 c 0.88212,0.95163 1.14826,2.16681 0.81261,3.70883 0.0142,0.0847 -4.46328,20.520714 -5.10016,23.325454 l -0.15168,0.6387 c -0.21162,1.05395 -0.45323,2.17842 -0.7121,3.31971 -0.001,0.005 -0.003,0.0101 -0.004,0.0155 -0.19764,0.86945 -0.40203,1.74797 -0.62759,2.61689 2.41819,0.59867 4.93588,1.15109 7.59928,1.15109 3.20419,0 6.15077,-0.79737 9.29349,-2.50629 5.70429,-2.99646 7.37473,-9.43639 9.2736,-18.91694 l 0.17515,-0.66016 c 1.50738,-6.802174 3.01117,-13.744894 4.53565,-20.865414 -3.67443,2.07068 -7.21067,3.08432 -10.77376,3.08432 z M 45.460245,82.658256 c 0.0721,0.0708 0.14314,0.13954 0.208254,0.21341 0.218863,0.24934 0.410316,0.5116 0.532791,0.80203 0.318585,0.74208 0.420661,1.919 -0.890905,3.29748 -1.457272,1.51876 -3.267763,2.25155 -4.859655,2.89438 -0.44569,0.1814 -0.84619,0.35322 -1.230418,0.52969 -0.105913,0.048 -0.213413,0.0972 -0.313161,0.14624 -0.365866,0.1819 -0.679026,0.37674 -0.94824,0.58962 -0.04212,0.0339 -0.07702,0.07 -0.11602,0.10518 0.03074,0.10567 0.0708,0.22944 0.127635,0.37052 0.01577,0.0393 0.04263,0.0878 0.06099,0.12996 0.06744,0.15296 0.150627,0.31702 0.256831,0.49713 0.106442,0.17983 0.229949,0.36896 0.386027,0.56972 0.0558,0.0726 0.133561,0.14936 0.197141,0.22376 0.150362,0.17624 0.315489,0.35375 0.510037,0.53642 0.08993,0.084 0.195077,0.16819 0.294825,0.25244 0.211879,0.1788 0.449316,0.35681 0.710539,0.53406 0.125836,0.085 0.254503,0.16925 0.392483,0.25297 0.299217,0.18267 0.641297,0.35837 1.003564,0.53046 0.147029,0.0708 0.280856,0.14261 0.4395,0.21058 0.544406,0.23281 1.140751,0.45553 1.826762,0.65164 l 0.215742,0.061 c 0.968692,0.23128 1.972495,0.41471 3.007333,0.56044 0.786501,0.11007 1.613853,0.17312 2.444538,0.23358 0.265616,0.0199 0.515991,0.0566 0.786263,0.0711 0.803566,0.0416 1.652084,0.0403 2.501662,0.0385 0.349832,-0.001 0.683154,0.0137 1.041532,0.005 0.716491,-0.0176 1.477169,-0.0731 2.2275,-0.12041 0.440294,-0.0287 0.874369,-0.0514 1.327071,-0.0915 -2.031921,-6.86625 -4.717283,-10.97941 -8.394065,-12.91367 -0.887809,-0.47673 -1.731671,-0.86146 -2.558256,-1.18288 l -0.248285,-0.10205 c -0.534591,-0.19613 -1.089872,-0.37105 -1.696799,-0.52271 0.04572,0.0305 0.07726,0.0695 0.122211,0.10076 0.233574,0.1633 0.444156,0.33824 0.634576,0.52504 z m -4.731993,35.099914 -0.119645,-0.44905 c -1.115959,-4.96948 -2.95021,-13.45372 -4.095088,-18.710494 -0.458364,-2.11513 -0.799968,-3.70649 -0.934588,-4.31757 l -0.009,-0.005 -0.06382,-0.30052 c -0.335915,-1.54847 -0.06461,-2.76079 0.832247,-3.70699 l 1.413351,-0.96351 c 0.0072,-0.004 0.01704,-0.007 0.02453,-0.0109 0.625819,-0.34959 1.327838,-0.64156 2.058538,-0.93559 1.51257,-0.61936 3.084063,-1.25291 4.296119,-2.5151 0.843888,-0.89014 0.636905,-1.36634 0.572585,-1.52705 -0.619337,-1.46632 -4.845447,-2.58201 -6.729307,-2.58201 v -0.017 c -0.04987,0.005 -0.108268,0.0111 -0.155046,0.023 -2.05568,0.31549 -4.033335,0.91699 -6.089279,1.54771 -3.046333,0.93482 -6.183075,1.89859 -9.714654,1.89859 -3.56309,0 -7.102924,-1.01364 -10.764969,-3.08432 1.498097,7.12052 3.019716,14.06324 4.526333,20.865414 h 0.01162 l 0.161237,0.66016 c 1.898068,9.48677 3.571875,15.92977 9.246473,18.91152 3.157167,1.71434 6.104519,2.51171 9.305634,2.51171 2.669593,0 5.180806,-0.55242 7.605474,-1.15109 -0.07856,-0.29869 -0.130995,-0.61132 -0.205661,-0.91467 -0.428148,-1.73349 -0.820367,-3.50366 -1.173056,-5.22708 z M 186.16743,96.963586 c 0.50178,0.0116 0.97848,0.002 1.46037,-0.004 1.19554,-0.0134 2.34431,-0.0739 3.45456,-0.17827 0.27233,-0.0261 0.55398,-0.0434 0.8214,-0.0749 1.33273,-0.15608 2.62257,-0.3664 3.86334,-0.66379 l 0.2364,-0.0617 c 0.6749,-0.19405 1.26349,-0.41445 1.80017,-0.64672 0.14494,-0.062 0.26638,-0.1287 0.40074,-0.19381 0.37568,-0.17931 0.7289,-0.36277 1.03664,-0.55396 0.11602,-0.0711 0.22349,-0.14264 0.32993,-0.21421 0.2956,-0.20126 0.56484,-0.40409 0.79841,-0.60849 0.0636,-0.0548 0.13176,-0.1098 0.19095,-0.16536 0.86712,-0.80796 1.29397,-1.5906 1.49191,-2.11304 0.004,-0.009 0.007,-0.0178 0.01,-0.0269 0.0351,-0.0956 0.0512,-0.16018 0.0734,-0.23564 -0.0365,-0.0318 -0.0687,-0.0651 -0.1075,-0.0966 -0.26641,-0.21161 -0.57904,-0.40542 -0.94594,-0.58576 -0.0946,-0.0462 -0.19637,-0.092 -0.29585,-0.13745 -0.38783,-0.17777 -0.79529,-0.35062 -1.24281,-0.53202 -1.60895,-0.64852 -3.4259,-1.38131 -4.86018,-2.90007 -1.32292,-1.37848 -1.22939,-2.5554 -0.91104,-3.29748 0.12711,-0.29197 0.32168,-0.55629 0.54465,-0.80746 0.062,-0.07 0.13125,-0.13615 0.19973,-0.20359 0.18865,-0.18526 0.39714,-0.35812 0.62632,-0.52038 0.0501,-0.0346 0.0853,-0.0783 0.13618,-0.1129 -0.60436,0.15475 -1.15625,0.3271 -1.69397,0.5258 l -0.24495,0.10205 c -0.86452,0.33333 -1.70325,0.71829 -2.55563,1.17436 -3.68171,1.94225 -6.36837,6.05673 -8.3915,12.91651 0.92268,0.0799 1.8371,0.15478 2.69544,0.19121 0.36592,0.0147 0.72144,0.0186 1.07905,0.0243 z" />
  </g>
</svg>
