<?xml version="1.0" encoding="UTF-8" standalone="no"?>
<!-- Created with Inkscape (http://www.inkscape.org/) -->

<svg
   width="217.49944mm"
   height="128.50035mm"
   viewBox="0 0 217.49944 128.50035"
   version="1.1"
   id="svg1"
   xmlns="http://www.w3.org/2000/svg"
   xmlns:svg="http://www.w3.org/2000/svg">
  <defs
     id="defs1" />
  <g
     id="layer1"
     transform="translate(-11.25007,-10.749786)">
    <path
       id="text1"
       fill="currentColor"
       d="m 89.537531,16.138821 q -2.269066,1.985433 -5.010854,3.781777 -2.647243,1.796343 -5.57812,3.119965 -2.930876,1.323622 -6.050841,2.174521 -3.119966,0.756355 -6.239931,0.756355 -1.039988,0 -1.985432,0 -0.945445,0 -1.890889,-0.09454 -0.283633,2.836332 -0.283633,5.767209 0,8.036274 0.09455,16.167092 0.09454,8.130819 0.09454,17.301626 0,4.916309 1.701799,9.548985 1.796344,4.538131 5.105398,6.618108 -3.970865,1.890888 -6.712653,3.970865 -2.647243,2.174521 -4.72722,6.145386 -1.607255,-3.87632 -5.010853,-6.23993 -3.403599,-2.269066 -7.658097,-3.876321 1.890888,-2.741788 2.836332,-7.09083 0.945444,-4.443587 0.945444,-8.603541 0,-4.065409 0,-7.185374 0,-3.21451 0,-5.956298 0.09454,-2.741787 0.09454,-5.294486 0.09454,-2.552699 0.09454,-5.483576 0.09455,-2.930876 0.09455,-6.429019 0,-3.498143 0,-8.225363 0,-0.756355 0,-1.418166 0,-0.661811 -0.189089,-1.418166 -6.239928,-1.134537 -11.912592,-2.26907 -5.57812,-1.229077 -10.210796,-1.229077 -2.079976,0 -4.443586,0.472722 l -0.09455,-0.283633 q 5.105398,-1.512711 8.319908,-3.687232 3.309054,-2.174521 6.618108,-5.199942 4.916309,1.418166 8.319907,2.269065 3.498143,0.8509 6.42902,1.323622 3.025421,0.472722 5.861753,0.661811 2.930876,0.09454 6.618108,0.09454 -0.945444,-1.607255 -1.323622,-2.836332 -0.378177,-1.323621 -0.472722,-2.741788 3.119966,1.985433 5.767209,3.119966 2.741788,1.039988 5.199942,1.607255 2.458154,0.472722 4.916309,0.567266 2.458154,0.09454 5.105398,0.09454 1.51271,0 2.741787,-0.09454 1.323622,-0.09454 2.647244,-0.283633 z m 6.050798,38.574117 q 2.174521,-3.498143 4.065409,-7.374464 1.890892,-3.87632 3.498142,-8.225363 1.79634,1.134533 5.1054,2.36361 3.30905,1.134533 7.27992,2.079977 -0.47272,3.970865 -1.7018,7.279919 -1.22908,3.21451 -3.11997,5.389031 l -6.33447,-3.309054 h -1.13453 l -7.658101,10.778062 v 13.047128 q 0,3.309054 1.134533,4.821764 1.229077,1.418166 4.254498,1.890888 v 1.607255 H 80.744858 v -1.418166 q 2.552698,-0.945444 2.552698,-6.050842 V 44.596687 l -3.498143,-1.512711 v -1.039988 q 3.309055,-0.472722 7.185375,-1.229077 3.876321,-0.8509 6.901742,-1.607255 l 1.701799,2.836332 z M 117.61726,43.178521 q 1.98544,-0.189089 4.44359,-0.567267 2.45815,-0.472722 4.91631,-1.039988 2.45815,-0.567267 4.53813,-1.134533 2.07998,-0.661811 3.30905,-1.229077 -0.18908,1.607255 -0.37817,2.930876 -0.0945,1.323622 -0.18909,2.836332 0,1.512711 -0.0945,3.309054 0,1.796344 0,4.254499 v 19.097969 l 3.97087,3.025421 9.07626,-3.970865 V 55.942015 q 0,-3.21451 -0.18909,-5.294486 -0.0945,-2.079977 -0.56726,-3.309055 -0.47273,-1.229077 -1.32363,-1.796343 -0.75635,-0.661811 -2.17452,-1.039989 v -1.229077 q 4.53813,-0.283633 8.88718,-1.323622 4.44358,-1.039988 7.65809,-2.647243 v 22.312479 q 0,4.443587 0.18909,7.279919 0.18909,2.741788 0.66181,4.443587 0.47272,1.7018 1.22908,2.458155 0.8509,0.756355 2.17452,1.039988 v 1.039989 q -1.22908,0.567266 -2.74179,1.701799 -1.51271,1.134533 -2.93087,2.552699 -1.41817,1.418166 -2.5527,2.930876 -1.13453,1.418166 -1.7018,2.647244 -3.11997,-2.647244 -4.53813,-4.916309 -1.32362,-2.269066 -1.79635,-5.57812 -2.83633,1.418166 -5.01085,2.647243 -2.07998,1.229077 -3.87632,2.458155 -1.7018,1.229077 -3.21451,2.552698 -1.41817,1.323622 -2.93088,2.836333 -1.89088,-1.7018 -3.40359,-2.836333 -1.41817,-1.229077 -2.83634,-2.174521 -1.32362,-0.945444 -2.74178,-1.701799 -1.32363,-0.8509 -3.02543,-1.796344 0.37818,-0.567266 0.66182,-2.552699 0.37817,-1.985432 0.66181,-4.821764 0.28363,-2.836332 0.37817,-6.050842 0.18909,-3.309054 0.18909,-6.334475 0,-3.403598 -0.28363,-5.861753 -0.18909,-2.552699 -0.75636,-4.349042 -0.56726,-1.796344 -1.51271,-2.930877 -0.8509,-1.229077 -2.26906,-2.079977 z m 69.11203,5.57812 v 20.894313 q 0,4.916309 2.36361,7.374463 2.45816,2.458155 6.05084,2.647243 v 1.323622 q -1.60725,0.567266 -3.40359,1.418166 -1.79635,0.8509 -3.49815,1.796344 -1.7018,0.850899 -3.21451,1.796343 -1.51271,0.945444 -2.36361,1.7018 -2.17452,-1.323622 -4.44358,-2.552699 -2.26907,-1.229078 -3.78178,-1.985433 V 48.000285 h -7.84719 v -1.039988 q 4.15996,-1.607255 7.84719,-4.916309 v -3.025421 q 0,-0.756355 -0.18909,-2.36361 -0.0945,-1.701799 -0.28363,-3.403599 -0.18909,-1.796343 -0.47272,-3.214509 -0.28364,-1.512711 -0.66182,-1.985433 4.2545,-0.283633 7.84719,-1.701799 3.59269,-1.418166 7.6581,-3.592687 -0.37818,0.945444 -0.66181,2.930876 -0.28364,1.985433 -0.56727,4.254498 -0.18909,2.174522 -0.28363,4.254498 -0.0945,1.985433 -0.0945,2.836333 v 5.010853 h 13.33076 v 0.378177 q -1.51271,1.607255 -2.74178,3.592688 -1.13454,1.985432 -1.60726,3.87632 z m 15.57445,48.504577 c 0.33202,-1.54305 0.54261,-2.526956 0.5607,-2.618952 0.0233,-0.105939 0.0101,-0.170286 0.0258,-0.267414 -0.0586,0.08811 -0.12814,0.179043 -0.19378,0.269478 -0.0372,0.05038 -0.0677,0.09716 -0.10671,0.148061 -0.22609,0.293766 -0.50102,0.595577 -0.81674,0.898392 -0.0476,0.04572 -0.0928,0.09043 -0.14314,0.135917 -0.33256,0.305646 -0.71647,0.607959 -1.15626,0.904848 -0.0643,0.04366 -0.13308,0.08475 -0.19973,0.1279 -0.46249,0.297656 -0.97748,0.585496 -1.56813,0.854974 -0.0643,0.02998 -0.13669,0.05686 -0.20283,0.08501 -0.63252,0.27776 -1.32369,0.538745 -2.11381,0.766101 l -0.24289,0.06358 c -1.27511,0.305912 -2.60138,0.518822 -3.96306,0.683922 -0.36563,0.04418 -0.75216,0.069 -1.12578,0.102843 -1.04129,0.09509 -2.12002,0.153485 -3.23236,0.169492 -0.24209,0.0034 -0.45733,0.0372 -0.70332,0.0372 0,0 0,0 -0.0121,0 -0.33951,0 -0.69945,-0.0222 -1.04516,-0.02918 -0.37518,-0.008 -0.75242,-0.01524 -1.13715,-0.03178 -1.18131,-0.05014 -2.39107,-0.125571 -3.68194,-0.254503 l -0.95549,-0.100012 0.005,-0.01654 c -3.9561,-0.451644 -7.58275,-1.164008 -10.53116,-1.753367 -1.01311,-0.201295 -1.93889,-0.390948 -2.78048,-0.542608 -3.06982,-0.555519 -5.88232,-1.166071 -8.59557,-1.75596 -9.48005,-2.058537 -18.44667,-4.003886 -38.39247,-4.0504 -19.95408,0.04651 -28.926153,1.991863 -38.418344,4.0504 -2.707825,0.589889 -5.514128,1.200441 -8.583692,1.758553 -0.82968,0.149067 -1.752097,0.332793 -2.75127,0.534326 -2.966482,0.591688 -6.607095,1.310005 -10.543804,1.757522 l 0.0057,0.01807 -0.957818,0.100012 c -1.308973,0.13126 -2.540926,0.206693 -3.744727,0.256567 -0.303609,0.01138 -0.602298,0.0173 -0.902018,0.02455 -0.405156,0.0093 -0.823727,0.03434 -1.221104,0.03434 -0.290169,0 -0.544672,-0.0385 -0.829945,-0.04366 -0.98986,-0.0181 -1.953366,-0.07183 -2.895944,-0.151421 -0.475404,-0.04106 -0.964539,-0.07104 -1.427824,-0.127106 -1.340723,-0.163301 -2.648136,-0.374148 -3.897683,-0.671275 l -0.256567,-0.07572 c -0.787029,-0.22479 -1.47484,-0.484452 -2.104787,-0.759116 -0.07443,-0.03307 -0.155283,-0.06252 -0.227118,-0.09536 -0.577744,-0.26379 -1.08159,-0.545941 -1.536329,-0.837406 -0.08012,-0.05141 -0.162269,-0.10078 -0.238496,-0.152453 -0.427619,-0.28964 -0.799703,-0.584465 -1.123976,-0.882359 -0.0576,-0.05273 -0.110332,-0.103611 -0.164571,-0.156078 -0.312394,-0.301519 -0.58293,-0.600736 -0.806159,-0.893471 -0.03101,-0.04032 -0.0558,-0.07829 -0.08578,-0.119116 -0.0721,-0.09872 -0.148325,-0.197935 -0.211376,-0.294296 0.01424,0.09689 0.0047,0.163804 0.02612,0.269743 l -0.02921,0.0088 c 0.157612,0.519615 0.414708,1.708679 1.042829,4.60875 1.091935,5.032534 2.830062,13.035384 3.945757,18.064534 h 0.01733 l 0.157851,0.65759 c 0.488103,2.40374 1.0219,4.95629 1.668118,7.30732 1.121648,4.06252 2.347675,6.81971 3.767217,8.42608 3.300307,3.72949 7.859977,5.5436 13.937906,5.5436 4.287335,0 8.472355,-0.91985 11.533399,-1.59163 0.803328,-0.1783 1.544876,-0.34237 2.17895,-0.46717 0.08215,-0.015 8.288893,-1.60687 14.793145,-2.51508 l 3.443975,-0.49352 c 7.666465,-1.10975 13.212895,-1.91022 26.440255,-1.93088 13.22218,0.0207 18.7601,0.82113 26.42706,1.92805 l 3.46051,0.49635 c 6.5022,0.90821 14.69136,2.5001 14.77894,2.51508 0.64546,0.1248 1.37848,0.2889 2.19057,0.46717 3.06055,0.67178 7.24633,1.59163 11.52515,1.59163 6.07147,0 10.62801,-1.81411 13.93763,-5.5436 1.41052,-1.60637 2.60474,-4.28165 3.76126,-8.43463 0.66898,-2.44816 1.21854,-5.06454 1.67355,-7.29877 l 0.16975,-0.65759 c 1.28805,-5.76294 3.38611,-15.42799 4.38423,-20.054332 z m 15.67243,-11.074242 c -3.53131,0 -6.67737,-0.963771 -9.71465,-1.898597 -2.05595,-0.630713 -4.02455,-1.232217 -6.07145,-1.547706 l -7.9e-4,0.0031 h -0.0142 c -2.09135,0 -6.27404,1.115431 -6.90499,2.572967 -0.061,0.160708 -0.27184,0.633307 0.59296,1.530403 1.19475,1.258835 2.76881,1.898333 4.28759,2.511743 0.72062,0.290936 1.41645,0.577479 2.03732,0.919559 0.0129,0.0075 0.0295,0.01164 0.0426,0.01886 l 1.42471,0.977979 c 0.88212,0.951627 1.14826,2.166805 0.81261,3.708824 0.0142,0.08475 -4.46328,20.520712 -5.10016,23.325452 l -0.15169,0.63871 c -0.21161,1.05394 -0.45323,2.17842 -0.7121,3.3197 -0.001,0.005 -0.003,0.0101 -0.004,0.0155 -0.19764,0.86945 -0.40204,1.74797 -0.62759,2.61689 2.41818,0.59867 4.93588,1.1511 7.59928,1.1511 3.20418,0 6.15077,-0.79738 9.29349,-2.5063 5.70428,-2.99646 7.37473,-9.43639 9.27359,-18.91694 l 0.17516,-0.66016 c 1.50738,-6.802172 3.01117,-13.744891 4.53564,-20.865411 -3.67442,2.070682 -7.21066,3.084327 -10.77375,3.084327 z M 45.460089,83.658698 c 0.0721,0.0708 0.14314,0.139541 0.208254,0.213412 0.218863,0.249344 0.410316,0.511599 0.532791,0.802032 0.318585,0.742077 0.420661,1.918996 -0.890905,3.297475 -1.457272,1.518762 -3.267763,2.251552 -4.859655,2.894383 -0.44569,0.181399 -0.84619,0.353219 -1.230418,0.529696 -0.105913,0.04805 -0.213413,0.09716 -0.313161,0.146235 -0.365866,0.181901 -0.679026,0.376741 -0.94824,0.589624 -0.04212,0.03387 -0.07702,0.07004 -0.11602,0.105172 0.03075,0.105675 0.0708,0.229447 0.127635,0.370523 0.01577,0.03926 0.04262,0.08784 0.06099,0.129963 0.06744,0.152956 0.150627,0.317024 0.256831,0.497126 0.106442,0.179837 0.229949,0.368961 0.386027,0.569727 0.0558,0.0726 0.133562,0.149357 0.197141,0.223758 0.150363,0.176239 0.315489,0.353748 0.510037,0.536416 0.08993,0.08398 0.195077,0.168196 0.294825,0.252439 0.211879,0.178806 0.449316,0.356817 0.710539,0.534062 0.125836,0.08501 0.254503,0.169254 0.392483,0.252968 0.299217,0.182668 0.641297,0.358378 1.003564,0.530463 0.147029,0.0708 0.280856,0.14261 0.4395,0.210582 0.544406,0.232807 1.140751,0.455533 1.826762,0.651642 l 0.215742,0.06096 c 0.968692,0.231272 1.972495,0.414708 3.007333,0.560441 0.786501,0.110066 1.613853,0.173116 2.444539,0.233574 0.265615,0.0199 0.51599,0.05659 0.786262,0.07107 0.803566,0.04159 1.652085,0.0403 2.501662,0.0385 0.349832,-0.0011 0.683154,0.01368 1.041532,0.0052 0.716492,-0.01757 1.477169,-0.07313 2.227501,-0.120412 0.440293,-0.02868 0.874368,-0.05141 1.32707,-0.09147 -2.03192,-6.866255 -4.717283,-10.979415 -8.394065,-12.913678 -0.887809,-0.476726 -1.731671,-0.861457 -2.558256,-1.182872 l -0.248285,-0.10205 c -0.534591,-0.196136 -1.089872,-0.371052 -1.696799,-0.522711 0.04572,0.03048 0.07726,0.06951 0.122211,0.100753 0.233574,0.163301 0.444156,0.338244 0.634576,0.52504 z m -4.731993,35.099912 -0.119645,-0.44905 c -1.115959,-4.96948 -2.95021,-13.45372 -4.095088,-18.710484 -0.458364,-2.115132 -0.799968,-3.706495 -0.934588,-4.317577 l -0.009,-0.0052 -0.06382,-0.300514 c -0.335915,-1.548474 -0.06461,-2.760795 0.832247,-3.706998 l 1.413351,-0.963506 c 0.0072,-0.0039 0.01704,-0.007 0.02453,-0.01085 0.625819,-0.349594 1.327838,-0.641562 2.058538,-0.935593 1.51257,-0.619363 3.084063,-1.252908 4.296119,-2.515103 0.843888,-0.890138 0.636905,-1.366335 0.572585,-1.527043 -0.619337,-1.46632 -4.845447,-2.582015 -6.729307,-2.582015 v -0.01704 c -0.04987,0.0052 -0.108267,0.01111 -0.155046,0.02299 -2.05568,0.315489 -4.033335,0.916993 -6.089279,1.547706 -3.046333,0.934826 -6.183075,1.898597 -9.714653,1.898597 -3.563091,0 -7.102925,-1.013645 -10.76497,-3.084327 1.498097,7.12052 3.019716,14.063239 4.526333,20.865407 h 0.01162 l 0.161237,0.66016 c 1.898068,9.48677 3.571875,15.92977 9.246473,18.91152 3.157167,1.71434 6.10452,2.51172 9.305634,2.51172 2.669593,0 5.180806,-0.55243 7.605474,-1.1511 -0.07856,-0.29869 -0.130995,-0.61132 -0.20566,-0.91467 -0.428149,-1.73349 -0.820368,-3.50366 -1.173057,-5.22708 z M 186.16728,97.96403 c 0.50178,0.01162 0.97848,0.0016 1.46036,-0.0036 1.19555,-0.01344 2.34432,-0.0739 3.45456,-0.178276 0.27234,-0.02609 0.55399,-0.04342 0.8214,-0.07493 1.33273,-0.156077 2.62258,-0.366395 3.86334,-0.663786 l 0.23641,-0.06175 c 0.6749,-0.194046 1.26349,-0.414444 1.80017,-0.646721 0.14494,-0.06202 0.26638,-0.128694 0.40074,-0.193808 0.37568,-0.179308 0.7289,-0.36277 1.03663,-0.553958 0.11602,-0.07107 0.2235,-0.142636 0.32994,-0.214206 0.29559,-0.201269 0.56483,-0.404098 0.79841,-0.608489 0.0636,-0.05477 0.13176,-0.109802 0.19095,-0.165365 0.86712,-0.807958 1.29397,-1.590595 1.4919,-2.113041 0.004,-0.0093 0.007,-0.01783 0.01,-0.02688 0.0351,-0.09559 0.0511,-0.160179 0.0734,-0.235638 -0.0365,-0.03178 -0.0687,-0.06511 -0.1075,-0.09663 -0.26641,-0.211614 -0.57904,-0.405421 -0.94594,-0.585761 -0.0946,-0.04625 -0.19637,-0.092 -0.29586,-0.137451 -0.38782,-0.177773 -0.79528,-0.350626 -1.2428,-0.532024 -1.60896,-0.64852 -3.4259,-1.38131 -4.86018,-2.900072 -1.32292,-1.378479 -1.22939,-2.555398 -0.91104,-3.297475 0.1271,-0.291968 0.32168,-0.556287 0.54464,-0.807456 0.062,-0.07001 0.13126,-0.136154 0.19974,-0.203596 0.18864,-0.185262 0.39714,-0.358114 0.62632,-0.520383 0.0501,-0.03461 0.0853,-0.07829 0.13618,-0.112898 -0.60436,0.154755 -1.15626,0.327105 -1.69397,0.525807 l -0.24495,0.10205 c -0.86453,0.333322 -1.70326,0.71829 -2.55564,1.174353 -3.6817,1.942253 -6.36836,6.056736 -8.3915,12.916508 0.92269,0.07985 1.83711,0.154781 2.69545,0.191215 0.36592,0.01474 0.72144,0.0186 1.07905,0.02429 z" />
  </g>
</svg>
